<?xml version="1.0" encoding="utf-8"?>
<!-- Generator: Adobe Illustrator 16.0.0, SVG Export Plug-In . SVG Version: 6.00 Build 0)  -->
<!DOCTYPE svg PUBLIC "-//W3C//DTD SVG 1.1//EN" "http://www.w3.org/Graphics/SVG/1.1/DTD/svg11.dtd">
<svg version="1.1" id="Vrstva_1" xmlns="http://www.w3.org/2000/svg" xmlns:xlink="http://www.w3.org/1999/xlink" x="0px" y="0px"
	 width="136.037px" height="36.811px" viewBox="0 0 136.037 36.811" enable-background="new 0 0 136.037 36.811"
	 xml:space="preserve">
<g>
	<circle fill="#FFFFFF" cx="16.994" cy="8.519" r="2.061"/>
	<path fill="#FFFFFF" d="M18,5.617V0h-2v5.617c0-0.114,0.637-0.189,1-0.189S18,5.503,18,5.617z"/>
	<path fill="#FFFFFF" d="M29.281,35.949l-10.23-25.14c-0.512,0.46-1.174,0.749-1.906,0.786l0.802,1.973
		c-0.631,0.118-1.281,0.13-1.914,0.012l0.809-1.985c-0.733-0.037-1.395-0.325-1.905-0.786L9.038,25.307
		c-3.146-1.577-5.79-4.111-7.496-7.354l-1.823,0.96c1.938,3.681,4.953,6.544,8.54,8.305l-3.554,8.731l1.909,0.777l3.54-8.697
		c2.071,0.752,4.289,1.156,6.572,1.156c2.445,0,4.802-0.453,7.034-1.336l3.613,8.877L29.281,35.949z M16.726,27.125
		c-2.012,0-3.967-0.35-5.795-1.005l4.318-10.61c0.568,0.143,1.151,0.222,1.745,0.222c0.596,0,1.177-0.081,1.745-0.222l4.241,10.42
		C20.993,26.711,18.9,27.125,16.726,27.125z"/>
	<g>
		<path fill="#FFFFFF" d="M59.072,36.444L51.69,25.025l-2.949,4.08v7.339h-4.704V9.635h4.704v12.828l9.01-12.828h5.355
			l-8.305,11.713l9.896,15.097H59.072z"/>
		<path fill="#FFFFFF" d="M83.932,28.045H70.09c0.085,1.562,0.615,2.775,1.592,3.642c0.979,0.866,2.293,1.299,3.945,1.299
			c2.062,0,3.631-0.542,4.703-1.628l1.756,3.495c-1.592,1.306-3.969,1.958-7.129,1.958c-2.955,0-5.291-0.875-7.011-2.626
			c-1.719-1.75-2.578-4.193-2.578-7.329c0-3.087,0.944-5.587,2.832-7.503c1.888-1.916,4.152-2.873,6.792-2.873
			c2.811,0,5.066,0.848,6.768,2.543c1.701,1.696,2.551,3.855,2.551,6.479C84.311,26.062,84.184,26.91,83.932,28.045z M70.254,24.604
			h9.516c-0.312-2.867-1.881-4.301-4.703-4.301C72.484,20.304,70.881,21.737,70.254,24.604z"/>
		<path fill="#FFFFFF" d="M98.73,13.002c-0.99-0.329-1.748-0.494-2.279-0.494c-0.857,0-1.584,0.372-2.182,1.116
			c-0.596,0.745-0.895,1.659-0.895,2.745c0,0.159,0.006,0.317,0.018,0.476h4.018v3.771h-3.945v15.829h-4.523V20.615h-2.822v-3.771
			h2.842c0.096-2.402,0.799-4.343,2.107-5.819c1.309-1.476,3-2.215,5.074-2.215c1.074,0,2.383,0.238,3.926,0.714L98.73,13.002z"/>
		<path fill="#FFFFFF" d="M118.922,28.045H105.08c0.086,1.562,0.615,2.775,1.594,3.642c0.977,0.866,2.291,1.299,3.943,1.299
			c2.062,0,3.631-0.542,4.703-1.628l1.756,3.495c-1.592,1.306-3.969,1.958-7.129,1.958c-2.955,0-5.291-0.875-7.01-2.626
			c-1.719-1.75-2.578-4.193-2.578-7.329c0-3.087,0.943-5.587,2.83-7.503c1.889-1.916,4.152-2.873,6.795-2.873
			c2.811,0,5.064,0.848,6.766,2.543c1.701,1.696,2.551,3.855,2.551,6.479C119.301,26.062,119.176,26.91,118.922,28.045z
			 M105.244,24.604h9.516c-0.312-2.867-1.881-4.301-4.703-4.301C107.475,20.304,105.871,21.737,105.244,24.604z"/>
		<path fill="#FFFFFF" d="M134.119,21.108c-0.809-0.536-1.693-0.805-2.66-0.805c-1.049,0-1.98,0.482-2.795,1.445
			c-0.812,0.965-1.221,2.142-1.221,3.532v11.163h-4.523v-19.6h4.523v1.794c1.268-1.439,2.949-2.159,5.049-2.159
			c1.543,0,2.725,0.237,3.545,0.713L134.119,21.108z"/>
	</g>
</g>
</svg>
